<svg data-v-fde0c5aa="" xmlns="http://www.w3.org/2000/svg" viewBox="0 0 300 300" class="iconAboveSlogan"><!----><defs data-v-fde0c5aa=""><!----></defs><rect data-v-fde0c5aa="" fill="#E8F4F0" x="0" y="0" width="300px" height="300px" class="logo-background-square"></rect><defs data-v-fde0c5aa=""><!----></defs><g data-v-fde0c5aa="" id="67fcf6cf-ac65-4a82-b9d8-bf1affd4697b" fill="#04291D" transform="matrix(1.875631288113951,0,0,1.875631288113951,18.762083300654403,145.78831735649172)"><path d="M0.66 12.20L0.66 12.20L0.66 12.20Q0.66 10.99 0.92 10.19L0.92 10.19L0.92 10.19Q1.18 9.40 1.75 8.93L1.75 8.93L1.75 8.93Q2.32 8.47 3.24 8.28L3.24 8.28L3.24 8.28Q4.16 8.09 5.47 8.09L5.47 8.09L5.47 8.09Q6.78 8.09 7.70 8.28L7.70 8.28L7.70 8.28Q8.61 8.47 9.19 8.93L9.19 8.93L9.19 8.93Q9.76 9.40 10.02 10.19L10.02 10.19L10.02 10.19Q10.28 10.99 10.28 12.20L10.28 12.20L10.28 12.20Q10.28 13.41 10.02 14.21L10.02 14.21L10.02 14.21Q9.76 15.00 9.19 15.48L9.19 15.48L9.19 15.48Q8.61 15.95 7.70 16.14L7.70 16.14L7.70 16.14Q6.78 16.34 5.47 16.34L5.47 16.34L5.47 16.34Q4.16 16.34 3.24 16.14L3.24 16.14L3.24 16.14Q2.32 15.95 1.75 15.48L1.75 15.48L1.75 15.48Q1.18 15.00 0.92 14.21L0.92 14.21L0.92 14.21Q0.66 13.41 0.66 12.20ZM1.97 12.20L1.97 12.20L1.97 12.20Q1.97 12.85 2.02 13.34L2.02 13.34L2.02 13.34Q2.06 13.82 2.20 14.17L2.20 14.17L2.20 14.17Q2.33 14.52 2.57 14.74L2.57 14.74L2.57 14.74Q2.81 14.96 3.20 15.09L3.20 15.09L3.20 15.09Q3.59 15.22 4.15 15.26L4.15 15.26L4.15 15.26Q4.70 15.31 5.47 15.31L5.47 15.31L5.47 15.31Q6.13 15.31 6.64 15.28L6.64 15.28L6.64 15.28Q7.16 15.25 7.54 15.14L7.54 15.14L7.54 15.14Q7.93 15.03 8.20 14.83L8.20 14.83L8.20 14.83Q8.48 14.63 8.64 14.28L8.64 14.28L8.64 14.28Q8.81 13.93 8.89 13.42L8.89 13.42L8.89 13.42Q8.97 12.91 8.97 12.20L8.97 12.20L8.97 12.20Q8.97 11.49 8.89 11.00L8.89 11.00L8.89 11.00Q8.81 10.50 8.64 10.17L8.64 10.17L8.64 10.17Q8.48 9.83 8.20 9.64L8.20 9.64L8.20 9.64Q7.93 9.44 7.54 9.34L7.54 9.34L7.54 9.34Q7.16 9.24 6.64 9.21L6.64 9.21L6.64 9.21Q6.13 9.19 5.47 9.19L5.47 9.19L5.47 9.19Q4.81 9.19 4.30 9.21L4.30 9.21L4.30 9.21Q3.78 9.24 3.39 9.34L3.39 9.34L3.39 9.34Q3.01 9.44 2.73 9.64L2.73 9.64L2.73 9.64Q2.46 9.83 2.29 10.17L2.29 10.17L2.29 10.17Q2.13 10.50 2.05 11.00L2.05 11.00L2.05 11.00Q1.97 11.49 1.97 12.20ZM18.16 9.31L14.44 9.31L14.44 16.19L13.13 16.19L13.13 9.31L11.81 9.31L11.81 8.31L13.13 8.31L13.13 8.24L13.13 8.24Q13.13 7.44 13.30 6.91L13.30 6.91L13.30 6.91Q13.48 6.38 13.89 6.06L13.89 6.06L13.89 6.06Q14.30 5.74 14.97 5.60L14.97 5.60L14.97 5.60Q15.65 5.47 16.63 5.47L16.63 5.47L18.16 5.47L18.16 6.56L16.63 6.56L16.63 6.56Q16.00 6.56 15.59 6.59L15.59 6.59L15.59 6.59Q15.17 6.62 14.91 6.77L14.91 6.77L14.91 6.77Q14.66 6.93 14.55 7.27L14.55 7.27L14.55 7.27Q14.44 7.62 14.44 8.24L14.44 8.24L14.44 8.31L18.16 8.31L18.16 9.31ZM25.38 9.31L21.66 9.31L21.66 16.19L20.34 16.19L20.34 9.31L19.03 9.31L19.03 8.31L20.34 8.31L20.34 8.24L20.34 8.24Q20.34 7.44 20.52 6.91L20.52 6.91L20.52 6.91Q20.70 6.38 21.11 6.06L21.11 6.06L21.11 6.06Q21.52 5.74 22.19 5.60L22.19 5.60L22.19 5.60Q22.87 5.47 23.85 5.47L23.85 5.47L25.38 5.47L25.38 6.56L23.84 6.56L23.84 6.56Q23.22 6.56 22.80 6.59L22.80 6.59L22.80 6.59Q22.39 6.62 22.13 6.77L22.13 6.77L22.13 6.77Q21.88 6.93 21.77 7.27L21.77 7.27L21.77 7.27Q21.66 7.62 21.66 8.24L21.66 8.24L21.66 8.31L25.38 8.31L25.38 9.31ZM34.13 10.88L33.03 10.88L33.03 10.88Q33.03 10.38 32.96 10.06L32.96 10.06L32.96 10.06Q32.89 9.73 32.62 9.54L32.62 9.54L32.62 9.54Q32.35 9.34 31.83 9.27L31.83 9.27L31.83 9.27Q31.31 9.19 30.41 9.19L30.41 9.19L30.41 9.19Q29.52 9.19 28.97 9.34L28.97 9.34L28.97 9.34Q28.42 9.50 28.10 9.78L28.10 9.78L28.10 9.78Q27.79 10.06 27.68 10.45L27.68 10.45L27.68 10.45Q27.56 10.83 27.56 11.31L27.56 11.31L27.56 16.19L26.25 16.19L26.25 8.31L27.56 8.31L27.56 9.56L27.56 9.56Q27.63 9.35 27.82 9.10L27.82 9.10L27.82 9.10Q28 8.84 28.38 8.62L28.38 8.62L28.38 8.62Q28.75 8.39 29.35 8.24L29.35 8.24L29.35 8.24Q29.95 8.09 30.84 8.09L30.84 8.09L30.84 8.09Q31.87 8.09 32.51 8.27L32.51 8.27L32.51 8.27Q33.15 8.46 33.51 8.81L33.51 8.81L33.51 8.81Q33.87 9.16 34.00 9.68L34.00 9.68L34.00 9.68Q34.13 10.20 34.13 10.88L34.13 10.88ZM34.78 12.20L34.78 12.20L34.78 12.20Q34.78 10.99 35.04 10.19L35.04 10.19L35.04 10.19Q35.30 9.40 35.88 8.93L35.88 8.93L35.88 8.93Q36.45 8.47 37.37 8.28L37.37 8.28L37.37 8.28Q38.28 8.09 39.59 8.09L39.59 8.09L39.59 8.09Q40.91 8.09 41.82 8.28L41.82 8.28L41.82 8.28Q42.74 8.47 43.31 8.93L43.31 8.93L43.31 8.93Q43.89 9.40 44.15 10.19L44.15 10.19L44.15 10.19Q44.41 10.99 44.41 12.20L44.41 12.20L44.41 12.20Q44.41 13.41 44.15 14.21L44.15 14.21L44.15 14.21Q43.89 15.00 43.31 15.48L43.31 15.48L43.31 15.48Q42.74 15.95 41.82 16.14L41.82 16.14L41.82 16.14Q40.91 16.34 39.59 16.34L39.59 16.34L39.59 16.34Q38.28 16.34 37.37 16.14L37.37 16.14L37.37 16.14Q36.45 15.95 35.88 15.48L35.88 15.48L35.88 15.48Q35.30 15.00 35.04 14.21L35.04 14.21L35.04 14.21Q34.78 13.41 34.78 12.20ZM36.09 12.20L36.09 12.20L36.09 12.20Q36.09 12.85 36.14 13.34L36.14 13.34L36.14 13.34Q36.19 13.82 36.32 14.17L36.32 14.17L36.32 14.17Q36.46 14.52 36.70 14.74L36.70 14.74L36.70 14.74Q36.93 14.96 37.32 15.09L37.32 15.09L37.32 15.09Q37.71 15.22 38.27 15.26L38.27 15.26L38.27 15.26Q38.83 15.31 39.59 15.31L39.59 15.31L39.59 15.31Q40.25 15.31 40.77 15.28L40.77 15.28L40.77 15.28Q41.28 15.25 41.67 15.14L41.67 15.14L41.67 15.14Q42.05 15.03 42.33 14.83L42.33 14.83L42.33 14.83Q42.60 14.63 42.77 14.28L42.77 14.28L42.77 14.28Q42.94 13.93 43.02 13.42L43.02 13.42L43.02 13.42Q43.09 12.91 43.09 12.20L43.09 12.20L43.09 12.20Q43.09 11.49 43.02 11.00L43.02 11.00L43.02 11.00Q42.94 10.50 42.77 10.17L42.77 10.17L42.77 10.17Q42.60 9.83 42.33 9.64L42.33 9.64L42.33 9.64Q42.05 9.44 41.67 9.34L41.67 9.34L41.67 9.34Q41.28 9.24 40.77 9.21L40.77 9.21L40.77 9.21Q40.25 9.19 39.59 9.19L39.59 9.19L39.59 9.19Q38.94 9.19 38.42 9.21L38.42 9.21L38.42 9.21Q37.91 9.24 37.52 9.34L37.52 9.34L37.52 9.34Q37.13 9.44 36.86 9.64L36.86 9.64L36.86 9.64Q36.59 9.83 36.42 10.17L36.42 10.17L36.42 10.17Q36.25 10.50 36.17 11.00L36.17 11.00L36.17 11.00Q36.09 11.49 36.09 12.20ZM53.78 16.19L53.78 15.11L53.78 15.11Q53.76 15.19 53.47 15.52L53.47 15.52L53.47 15.52Q53.27 15.76 52.92 15.95L52.92 15.95L52.92 15.95Q52.58 16.14 52.01 16.25L52.01 16.25L52.01 16.25Q51.44 16.35 50.51 16.35L50.51 16.35L50.51 16.35Q49.27 16.35 48.40 16.23L48.40 16.23L48.40 16.23Q47.52 16.10 46.97 15.84L46.97 15.84L46.97 15.84Q46.42 15.57 46.16 15.16L46.16 15.16L46.16 15.16Q45.90 14.75 45.90 14.18L45.90 14.18L45.90 14.18Q45.90 13.59 46.04 13.18L46.04 13.18L46.04 13.18Q46.18 12.76 46.45 12.48L46.45 12.48L46.45 12.48Q46.72 12.20 47.11 12.04L47.11 12.04L47.11 12.04Q47.49 11.89 47.98 11.81L47.98 11.81L47.98 11.81Q48.47 11.72 49.05 11.70L49.05 11.70L49.05 11.70Q49.63 11.68 50.29 11.68L50.29 11.68L50.29 11.68Q51.22 11.68 51.85 11.76L51.85 11.76L51.85 11.76Q52.48 11.84 52.88 11.96L52.88 11.96L52.88 11.96Q53.28 12.08 53.48 12.22L53.48 12.22L53.48 12.22Q53.69 12.35 53.78 12.47L53.78 12.47L53.78 12.47Q53.78 11.70 53.71 11.16L53.71 11.16L53.71 11.16Q53.65 10.62 53.50 10.26L53.50 10.26L53.50 10.26Q53.35 9.90 53.12 9.68L53.12 9.68L53.12 9.68Q52.89 9.47 52.55 9.36L52.55 9.36L52.55 9.36Q52.21 9.25 51.76 9.22L51.76 9.22L51.76 9.22Q51.31 9.19 50.73 9.19L50.73 9.19L50.73 9.19Q49.83 9.19 49.23 9.23L49.23 9.23L49.23 9.23Q48.64 9.28 48.29 9.41L48.29 9.41L48.29 9.41Q47.94 9.54 47.80 9.77L47.80 9.77L47.80 9.77Q47.65 9.99 47.65 10.36L47.65 10.36L46.34 10.36L46.34 10.36Q46.34 9.74 46.56 9.31L46.56 9.31L46.56 9.31Q46.79 8.88 47.30 8.61L47.30 8.61L47.30 8.61Q47.82 8.34 48.66 8.22L48.66 8.22L48.66 8.22Q49.50 8.09 50.73 8.09L50.73 8.09L50.73 8.09Q51.93 8.09 52.77 8.29L52.77 8.29L52.77 8.29Q53.60 8.49 54.12 8.99L54.12 8.99L54.12 8.99Q54.63 9.49 54.86 10.33L54.86 10.33L54.86 10.33Q55.09 11.18 55.09 12.47L55.09 12.47L55.09 16.19L53.78 16.19ZM50.73 15.31L50.73 15.31L50.73 15.31Q51.60 15.31 52.18 15.23L52.18 15.23L52.18 15.23Q52.77 15.15 53.12 14.98L53.12 14.98L53.12 14.98Q53.48 14.82 53.63 14.57L53.63 14.57L53.63 14.57Q53.78 14.33 53.78 14L53.78 14L53.78 14Q53.78 13.67 53.60 13.44L53.60 13.44L53.60 13.44Q53.43 13.21 53.02 13.07L53.02 13.07L53.02 13.07Q52.62 12.93 51.95 12.86L51.95 12.86L51.95 12.86Q51.28 12.80 50.29 12.80L50.29 12.80L50.29 12.80Q49.31 12.80 48.70 12.83L48.70 12.83L48.70 12.83Q48.10 12.87 47.77 12.99L47.77 12.99L47.77 12.99Q47.44 13.11 47.33 13.35L47.33 13.35L47.33 13.35Q47.22 13.59 47.22 14L47.22 14L47.22 14Q47.22 14.41 47.34 14.67L47.34 14.67L47.34 14.67Q47.46 14.92 47.82 15.07L47.82 15.07L47.82 15.07Q48.19 15.21 48.89 15.26L48.89 15.26L48.89 15.26Q49.58 15.31 50.73 15.31ZM61.43 16.34L61.43 16.34L61.43 16.34Q60.12 16.34 59.21 16.15L59.21 16.15L59.21 16.15Q58.29 15.96 57.72 15.49L57.72 15.49L57.72 15.49Q57.14 15.03 56.88 14.24L56.88 14.24L56.88 14.24Q56.62 13.45 56.62 12.26L56.62 12.26L56.62 12.26Q56.62 11.03 56.88 10.23L56.88 10.23L56.88 10.23Q57.14 9.42 57.72 8.95L57.72 8.95L57.72 8.95Q58.29 8.48 59.21 8.29L59.21 8.29L59.21 8.29Q60.12 8.09 61.43 8.09L61.43 8.09L61.43 8.09Q62.36 8.09 62.99 8.19L62.99 8.19L62.99 8.19Q63.62 8.29 64.02 8.43L64.02 8.43L64.02 8.43Q64.42 8.57 64.63 8.74L64.63 8.74L64.63 8.74Q64.84 8.91 64.93 9.05L64.93 9.05L64.93 5.69L66.25 5.69L66.25 16.19L64.93 16.19L64.93 15.02L64.93 15.02Q64.93 15.02 64.61 15.41L64.61 15.41L64.61 15.41Q64.32 15.69 63.97 15.86L63.97 15.86L63.97 15.86Q63.62 16.03 62.99 16.18L62.99 16.18L62.99 16.18Q62.36 16.34 61.43 16.34ZM61.43 15.31L61.43 15.31L61.43 15.31Q62.09 15.31 62.60 15.28L62.60 15.28L62.60 15.28Q63.12 15.25 63.51 15.15L63.51 15.15L63.51 15.15Q63.90 15.05 64.17 14.84L64.17 14.84L64.17 14.84Q64.44 14.64 64.61 14.31L64.61 14.31L64.61 14.31Q64.78 13.97 64.86 13.48L64.86 13.48L64.86 13.48Q64.93 12.98 64.93 12.28L64.93 12.28L64.93 12.28Q64.93 11.56 64.86 11.05L64.86 11.05L64.86 11.05Q64.78 10.54 64.61 10.20L64.61 10.20L64.61 10.20Q64.44 9.85 64.17 9.65L64.17 9.65L64.17 9.65Q63.90 9.45 63.51 9.35L63.51 9.35L63.51 9.35Q63.12 9.24 62.60 9.21L62.60 9.21L62.60 9.21Q62.09 9.19 61.43 9.19L61.43 9.19L61.43 9.19Q60.67 9.19 60.11 9.24L60.11 9.24L60.11 9.24Q59.55 9.28 59.17 9.41L59.17 9.41L59.17 9.41Q58.78 9.53 58.53 9.75L58.53 9.75L58.53 9.75Q58.29 9.97 58.16 10.31L58.16 10.31L58.16 10.31Q58.02 10.65 57.98 11.13L57.98 11.13L57.98 11.13Q57.93 11.61 57.93 12.26L57.93 12.26L57.93 12.26Q57.93 12.91 57.98 13.38L57.98 13.38L57.98 13.38Q58.02 13.86 58.16 14.19L58.16 14.19L58.16 14.19Q58.29 14.53 58.53 14.75L58.53 14.75L58.53 14.75Q58.78 14.97 59.17 15.09L59.17 15.09L59.17 15.09Q59.55 15.22 60.11 15.26L60.11 15.26L60.11 15.26Q60.67 15.31 61.43 15.31ZM76.31 11.31L76.31 16.19L75.00 16.19L75.00 11.74L75.00 11.74Q75.00 11.03 74.90 10.54L74.90 10.54L74.90 10.54Q74.81 10.06 74.53 9.75L74.53 9.75L74.53 9.75Q74.25 9.45 73.73 9.32L73.73 9.32L73.73 9.32Q73.21 9.19 72.37 9.19L72.37 9.19L72.37 9.19Q71.45 9.19 70.85 9.34L70.85 9.34L70.85 9.34Q70.26 9.50 69.92 9.77L69.92 9.77L69.92 9.77Q69.58 10.05 69.44 10.44L69.44 10.44L69.44 10.44Q69.31 10.83 69.31 11.31L69.31 11.31L69.31 16.19L68.00 16.19L68.00 8.31L69.31 8.31L69.31 9.56L69.31 9.56Q69.32 9.54 69.37 9.42L69.37 9.42L69.37 9.42Q69.43 9.30 69.57 9.14L69.57 9.14L69.57 9.14Q69.71 8.98 69.95 8.80L69.95 8.80L69.95 8.80Q70.19 8.61 70.58 8.46L70.58 8.46L70.58 8.46Q70.96 8.30 71.51 8.20L71.51 8.20L71.51 8.20Q72.06 8.09 72.81 8.09L72.81 8.09L72.81 8.09Q73.55 8.09 74.09 8.19L74.09 8.19L74.09 8.19Q74.63 8.28 75.02 8.46L75.02 8.46L75.02 8.46Q75.41 8.64 75.65 8.91L75.65 8.91L75.65 8.91Q75.89 9.18 76.04 9.53L76.04 9.53L76.04 9.53Q76.15 9.34 76.40 9.10L76.40 9.10L76.40 9.10Q76.64 8.85 77.09 8.63L77.09 8.63L77.09 8.63Q77.53 8.40 78.19 8.25L78.19 8.25L78.19 8.25Q78.85 8.09 79.81 8.09L79.81 8.09L79.81 8.09Q80.60 8.09 81.16 8.20L81.16 8.20L81.16 8.20Q81.72 8.31 82.11 8.51L82.11 8.51L82.11 8.51Q82.50 8.72 82.74 9.03L82.74 9.03L82.74 9.03Q82.97 9.34 83.10 9.74L83.10 9.74L83.10 9.74Q83.23 10.15 83.27 10.65L83.27 10.65L83.27 10.65Q83.31 11.16 83.31 11.74L83.31 11.74L83.31 16.19L82.00 16.19L82.00 11.74L82.00 11.74Q82.00 11.03 81.90 10.54L81.90 10.54L81.90 10.54Q81.81 10.06 81.53 9.75L81.53 9.75L81.53 9.75Q81.25 9.45 80.73 9.32L80.73 9.32L80.73 9.32Q80.21 9.19 79.37 9.19L79.37 9.19L79.37 9.19Q78.45 9.19 77.85 9.34L77.85 9.34L77.85 9.34Q77.26 9.50 76.92 9.77L76.92 9.77L76.92 9.77Q76.58 10.05 76.44 10.44L76.44 10.44L76.44 10.44Q76.31 10.83 76.31 11.31L76.31 11.31ZM92.90 16.19L92.90 15.11L92.90 15.11Q92.88 15.19 92.59 15.52L92.59 15.52L92.59 15.52Q92.39 15.76 92.05 15.95L92.05 15.95L92.05 15.95Q91.70 16.14 91.13 16.25L91.13 16.25L91.13 16.25Q90.56 16.35 89.63 16.35L89.63 16.35L89.63 16.35Q88.40 16.35 87.52 16.23L87.52 16.23L87.52 16.23Q86.65 16.10 86.09 15.84L86.09 15.84L86.09 15.84Q85.54 15.57 85.28 15.16L85.28 15.16L85.28 15.16Q85.03 14.75 85.03 14.18L85.03 14.18L85.03 14.18Q85.03 13.59 85.17 13.18L85.17 13.18L85.17 13.18Q85.31 12.76 85.58 12.48L85.58 12.48L85.58 12.48Q85.85 12.20 86.23 12.04L86.23 12.04L86.23 12.04Q86.61 11.89 87.10 11.81L87.10 11.81L87.10 11.81Q87.59 11.72 88.17 11.70L88.17 11.70L88.17 11.70Q88.75 11.68 89.41 11.68L89.41 11.68L89.41 11.68Q90.34 11.68 90.97 11.76L90.97 11.76L90.97 11.76Q91.60 11.84 92.00 11.96L92.00 11.96L92.00 11.96Q92.40 12.08 92.61 12.22L92.61 12.22L92.61 12.22Q92.81 12.35 92.90 12.47L92.90 12.47L92.90 12.47Q92.90 11.70 92.84 11.16L92.84 11.16L92.84 11.16Q92.77 10.62 92.62 10.26L92.62 10.26L92.62 10.26Q92.48 9.90 92.24 9.68L92.24 9.68L92.24 9.68Q92.01 9.47 91.67 9.36L91.67 9.36L91.67 9.36Q91.33 9.25 90.88 9.22L90.88 9.22L90.88 9.22Q90.43 9.19 89.85 9.19L89.85 9.19L89.85 9.19Q88.95 9.19 88.35 9.23L88.35 9.23L88.35 9.23Q87.76 9.28 87.41 9.41L87.41 9.41L87.41 9.41Q87.06 9.54 86.92 9.77L86.92 9.77L86.92 9.77Q86.78 9.99 86.78 10.36L86.78 10.36L85.46 10.36L85.46 10.36Q85.46 9.74 85.69 9.31L85.69 9.31L85.69 9.31Q85.91 8.88 86.42 8.61L86.42 8.61L86.42 8.61Q86.94 8.34 87.78 8.22L87.78 8.22L87.78 8.22Q88.62 8.09 89.85 8.09L89.85 8.09L89.85 8.09Q91.05 8.09 91.89 8.29L91.89 8.29L91.89 8.29Q92.72 8.49 93.24 8.99L93.24 8.99L93.24 8.99Q93.75 9.49 93.98 10.33L93.98 10.33L93.98 10.33Q94.21 11.18 94.21 12.47L94.21 12.47L94.21 16.19L92.90 16.19ZM89.85 15.31L89.85 15.31L89.85 15.31Q90.72 15.31 91.30 15.23L91.30 15.23L91.30 15.23Q91.89 15.15 92.24 14.98L92.24 14.98L92.24 14.98Q92.60 14.82 92.75 14.57L92.75 14.57L92.75 14.57Q92.90 14.33 92.90 14L92.90 14L92.90 14Q92.90 13.67 92.73 13.44L92.73 13.44L92.73 13.44Q92.55 13.21 92.15 13.07L92.15 13.07L92.15 13.07Q91.74 12.93 91.07 12.86L91.07 12.86L91.07 12.86Q90.40 12.80 89.41 12.80L89.41 12.80L89.41 12.80Q88.43 12.80 87.82 12.83L87.82 12.83L87.82 12.83Q87.22 12.87 86.89 12.99L86.89 12.99L86.89 12.99Q86.56 13.11 86.45 13.35L86.45 13.35L86.45 13.35Q86.34 13.59 86.34 14L86.34 14L86.34 14Q86.34 14.41 86.46 14.67L86.46 14.67L86.46 14.67Q86.58 14.92 86.95 15.07L86.95 15.07L86.95 15.07Q87.32 15.21 88.01 15.26L88.01 15.26L88.01 15.26Q88.70 15.31 89.85 15.31ZM100.78 8.09L100.78 8.09L100.78 8.09Q102.09 8.09 103.00 8.29L103.00 8.29L103.00 8.29Q103.92 8.49 104.49 8.97L104.49 8.97L104.49 8.97Q105.07 9.45 105.33 10.25L105.33 10.25L105.33 10.25Q105.59 11.05 105.59 12.26L105.59 12.26L105.59 12.26Q105.59 13.45 105.33 14.24L105.33 14.24L105.33 14.24Q105.07 15.03 104.49 15.49L104.49 15.49L104.49 15.49Q103.92 15.96 103.00 16.15L103.00 16.15L103.00 16.15Q102.09 16.34 100.78 16.34L100.78 16.34L100.78 16.34Q99.84 16.34 99.21 16.24L99.21 16.24L99.21 16.24Q98.58 16.13 98.18 15.98L98.18 15.98L98.18 15.98Q97.78 15.83 97.57 15.65L97.57 15.65L97.57 15.65Q97.36 15.47 97.28 15.31L97.28 15.31L97.28 18.81L95.96 18.81L95.96 8.31L97.28 8.31L97.28 9.04L97.28 9.04Q97.36 8.91 97.57 8.74L97.57 8.74L97.57 8.74Q97.78 8.57 98.18 8.43L98.18 8.43L98.18 8.43Q98.58 8.29 99.21 8.19L99.21 8.19L99.21 8.19Q99.84 8.09 100.78 8.09ZM100.78 9.19L100.78 9.19L100.78 9.19Q100.12 9.19 99.61 9.22L99.61 9.22L99.61 9.22Q99.09 9.26 98.70 9.36L98.70 9.36L98.70 9.36Q98.31 9.47 98.04 9.67L98.04 9.67L98.04 9.67Q97.77 9.87 97.60 10.21L97.60 10.21L97.60 10.21Q97.43 10.55 97.35 11.05L97.35 11.05L97.35 11.05Q97.28 11.55 97.28 12.24L97.28 12.24L97.28 12.24Q97.28 12.95 97.35 13.45L97.35 13.45L97.35 13.45Q97.43 13.96 97.60 14.30L97.60 14.30L97.60 14.30Q97.77 14.64 98.04 14.84L98.04 14.84L98.04 14.84Q98.31 15.04 98.70 15.15L98.70 15.15L98.70 15.15Q99.09 15.25 99.61 15.28L99.61 15.28L99.61 15.28Q100.12 15.31 100.78 15.31L100.78 15.31L100.78 15.31Q101.54 15.31 102.10 15.26L102.10 15.26L102.10 15.26Q102.66 15.22 103.04 15.09L103.04 15.09L103.04 15.09Q103.43 14.97 103.68 14.75L103.68 14.75L103.68 14.75Q103.92 14.53 104.05 14.19L104.05 14.19L104.05 14.19Q104.19 13.86 104.23 13.38L104.23 13.38L104.23 13.38Q104.28 12.91 104.28 12.26L104.28 12.26L104.28 12.26Q104.28 11.62 104.23 11.14L104.23 11.14L104.23 11.14Q104.19 10.66 104.05 10.32L104.05 10.32L104.05 10.32Q103.92 9.98 103.68 9.76L103.68 9.76L103.68 9.76Q103.43 9.54 103.04 9.41L103.04 9.41L103.04 9.41Q102.66 9.28 102.10 9.24L102.10 9.24L102.10 9.24Q101.54 9.19 100.78 9.19ZM108.43 14.88L108.43 16.19L107.12 16.19L107.12 14.88L108.43 14.88ZM109.96 12.20L109.96 12.20L109.96 12.20Q109.96 10.99 110.22 10.19L110.22 10.19L110.22 10.19Q110.48 9.40 111.06 8.93L111.06 8.93L111.06 8.93Q111.63 8.47 112.55 8.28L112.55 8.28L112.55 8.28Q113.46 8.09 114.78 8.09L114.78 8.09L114.78 8.09Q116.09 8.09 117.00 8.28L117.00 8.28L117.00 8.28Q117.92 8.47 118.49 8.93L118.49 8.93L118.49 8.93Q119.07 9.40 119.33 10.19L119.33 10.19L119.33 10.19Q119.59 10.99 119.59 12.20L119.59 12.20L119.59 12.20Q119.59 13.41 119.33 14.21L119.33 14.21L119.33 14.21Q119.07 15.00 118.49 15.48L118.49 15.48L118.49 15.48Q117.92 15.95 117.00 16.14L117.00 16.14L117.00 16.14Q116.09 16.34 114.78 16.34L114.78 16.34L114.78 16.34Q113.46 16.34 112.55 16.14L112.55 16.14L112.55 16.14Q111.63 15.95 111.06 15.48L111.06 15.48L111.06 15.48Q110.48 15.00 110.22 14.21L110.22 14.21L110.22 14.21Q109.96 13.41 109.96 12.20ZM111.28 12.20L111.28 12.20L111.28 12.20Q111.28 12.85 111.32 13.34L111.32 13.34L111.32 13.34Q111.37 13.82 111.50 14.17L111.50 14.17L111.50 14.17Q111.64 14.52 111.88 14.74L111.88 14.74L111.88 14.74Q112.12 14.96 112.51 15.09L112.51 15.09L112.51 15.09Q112.90 15.22 113.45 15.26L113.45 15.26L113.45 15.26Q114.01 15.31 114.78 15.31L114.78 15.31L114.78 15.31Q115.43 15.31 115.95 15.28L115.95 15.28L115.95 15.28Q116.46 15.25 116.85 15.14L116.85 15.14L116.85 15.14Q117.24 15.03 117.51 14.83L117.51 14.83L117.51 14.83Q117.78 14.63 117.95 14.28L117.95 14.28L117.95 14.28Q118.12 13.93 118.20 13.42L118.20 13.42L118.20 13.42Q118.28 12.91 118.28 12.20L118.28 12.20L118.28 12.20Q118.28 11.49 118.20 11.00L118.20 11.00L118.20 11.00Q118.12 10.50 117.95 10.17L117.95 10.17L117.95 10.17Q117.78 9.83 117.51 9.64L117.51 9.64L117.51 9.64Q117.24 9.44 116.85 9.34L116.85 9.34L116.85 9.34Q116.46 9.24 115.95 9.21L115.95 9.21L115.95 9.21Q115.43 9.19 114.78 9.19L114.78 9.19L114.78 9.19Q114.12 9.19 113.60 9.21L113.60 9.21L113.60 9.21Q113.09 9.24 112.70 9.34L112.70 9.34L112.70 9.34Q112.31 9.44 112.04 9.64L112.04 9.64L112.04 9.64Q111.77 9.83 111.60 10.17L111.60 10.17L111.60 10.17Q111.43 10.50 111.35 11.00L111.35 11.00L111.35 11.00Q111.28 11.49 111.28 12.20ZM128.99 10.88L127.90 10.88L127.90 10.88Q127.90 10.38 127.83 10.06L127.83 10.06L127.83 10.06Q127.76 9.73 127.49 9.54L127.49 9.54L127.49 9.54Q127.22 9.34 126.70 9.27L126.70 9.27L126.70 9.27Q126.18 9.19 125.28 9.19L125.28 9.19L125.28 9.19Q124.39 9.19 123.84 9.34L123.84 9.34L123.84 9.34Q123.29 9.50 122.97 9.78L122.97 9.78L122.97 9.78Q122.66 10.06 122.54 10.45L122.54 10.45L122.54 10.45Q122.43 10.83 122.43 11.31L122.43 11.31L122.43 16.19L121.12 16.19L121.12 8.31L122.43 8.31L122.43 9.56L122.43 9.56Q122.50 9.35 122.68 9.10L122.68 9.10L122.68 9.10Q122.87 8.84 123.25 8.62L123.25 8.62L123.25 8.62Q123.62 8.39 124.22 8.24L124.22 8.24L124.22 8.24Q124.82 8.09 125.71 8.09L125.71 8.09L125.71 8.09Q126.74 8.09 127.38 8.27L127.38 8.27L127.38 8.27Q128.02 8.46 128.38 8.81L128.38 8.81L128.38 8.81Q128.74 9.16 128.87 9.68L128.87 9.68L128.87 9.68Q128.99 10.20 128.99 10.88L128.99 10.88ZM134.46 9.19L134.46 9.19L134.46 9.19Q133.70 9.19 133.14 9.24L133.14 9.24L133.14 9.24Q132.58 9.28 132.19 9.41L132.19 9.41L132.19 9.41Q131.80 9.53 131.56 9.75L131.56 9.75L131.56 9.75Q131.32 9.97 131.19 10.31L131.19 10.31L131.19 10.31Q131.05 10.65 131.01 11.13L131.01 11.13L131.01 11.13Q130.96 11.61 130.96 12.26L130.96 12.26L130.96 12.26Q130.96 12.91 131.01 13.38L131.01 13.38L131.01 13.38Q131.05 13.86 131.19 14.19L131.19 14.19L131.19 14.19Q131.32 14.53 131.56 14.75L131.56 14.75L131.56 14.75Q131.80 14.97 132.19 15.09L132.19 15.09L132.19 15.09Q132.58 15.22 133.14 15.26L133.14 15.26L133.14 15.26Q133.70 15.31 134.46 15.31L134.46 15.31L134.46 15.31Q135.12 15.31 135.63 15.28L135.63 15.28L135.63 15.28Q136.14 15.25 136.53 15.15L136.53 15.15L136.53 15.15Q136.92 15.04 137.19 14.84L137.19 14.84L137.19 14.84Q137.46 14.64 137.63 14.30L137.63 14.30L137.63 14.30Q137.81 13.96 137.88 13.46L137.88 13.46L137.88 13.46Q137.96 12.95 137.96 12.24L137.96 12.24L137.96 12.24Q137.96 11.53 137.88 11.03L137.88 11.03L137.88 11.03Q137.81 10.52 137.63 10.18L137.63 10.18L137.63 10.18Q137.46 9.84 137.19 9.65L137.19 9.65L137.19 9.65Q136.92 9.45 136.53 9.34L136.53 9.34L136.53 9.34Q136.14 9.24 135.63 9.21L135.63 9.21L135.63 9.21Q135.12 9.19 134.46 9.19ZM139.28 8.31L139.28 15.09L139.28 15.09Q139.28 16.24 139.02 17.00L139.02 17.00L139.02 17.00Q138.76 17.76 138.18 18.23L138.18 18.23L138.18 18.23Q137.61 18.70 136.69 18.88L136.69 18.88L136.69 18.88Q135.78 19.07 134.46 19.07L134.46 19.07L134.46 19.07Q133.23 19.07 132.40 18.96L132.40 18.96L132.40 18.96Q131.56 18.85 131.04 18.61L131.04 18.61L131.04 18.61Q130.53 18.38 130.31 18.00L130.31 18.00L130.31 18.00Q130.09 17.63 130.09 17.10L130.09 17.10L131.40 17.10L131.40 17.10Q131.40 17.36 131.54 17.53L131.54 17.53L131.54 17.53Q131.68 17.71 132.03 17.80L132.03 17.80L132.03 17.80Q132.38 17.90 132.97 17.93L132.97 17.93L132.97 17.93Q133.56 17.97 134.46 17.97L134.46 17.97L134.46 17.97Q135.45 17.97 136.12 17.90L136.12 17.90L136.12 17.90Q136.79 17.83 137.20 17.56L137.20 17.56L137.20 17.56Q137.61 17.29 137.79 16.75L137.79 16.75L137.79 16.75Q137.96 16.21 137.96 15.31L137.96 15.31L137.96 15.31Q137.87 15.48 137.66 15.67L137.66 15.67L137.66 15.67Q137.45 15.86 137.05 16.02L137.05 16.02L137.05 16.02Q136.65 16.19 136.02 16.30L136.02 16.30L136.02 16.30Q135.39 16.41 134.46 16.41L134.46 16.41L134.46 16.41Q133.15 16.41 132.23 16.21L132.23 16.21L132.23 16.21Q131.32 16.02 130.74 15.54L130.74 15.54L130.74 15.54Q130.17 15.07 129.91 14.27L129.91 14.27L129.91 14.27Q129.65 13.47 129.65 12.26L129.65 12.26L129.65 12.26Q129.65 11.03 129.91 10.23L129.91 10.23L129.91 10.23Q130.17 9.42 130.74 8.95L130.74 8.95L130.74 8.95Q131.32 8.48 132.23 8.29L132.23 8.29L132.23 8.29Q133.15 8.09 134.46 8.09L134.46 8.09L134.46 8.09Q135.39 8.09 136.02 8.19L136.02 8.19L136.02 8.19Q136.65 8.29 137.05 8.43L137.05 8.43L137.05 8.43Q137.45 8.57 137.66 8.74L137.66 8.74L137.66 8.74Q137.87 8.91 137.96 9.04L137.96 9.04L137.96 8.31L139.28 8.31Z"></path></g><defs data-v-fde0c5aa=""><linearGradient data-v-fde0c5aa="" gradientTransform="rotate(25)" id="a44dc51f-6af9-4c42-ad8f-e61adeace59a" x1="0%" y1="0%" x2="100%" y2="0%"><stop data-v-fde0c5aa="" offset="0%" stop-color="#01695A" stop-opacity="1"></stop><stop data-v-fde0c5aa="" offset="100%" stop-color="#2CC26F" stop-opacity="1"></stop></linearGradient></defs><g data-v-fde0c5aa="" id="bc2d5c12-12f0-44e6-8b8a-fcc0c8c38193" stroke="none" fill="url(#a44dc51f-6af9-4c42-ad8f-e61adeace59a)" transform="matrix(0.4446375327128903,0,0,0.4446375327128903,127.76812336435549,98.71227281745844)"><path d="M52.234 27.935l-1.582.512-.313 1.391-1.203 1.039 3.477.385zM50.67 36.043l.393 1.748-1.081.639v-.758l-2.263-2.812-2.622 1.724 3.046.895.519 1.421 3.149 1.734 3.539 2.096.726-2.066-3.756-1.736zM53.809 37.785l3.148 1.547.504-.709-2.934-2.846z"></path><path d="M33.954 11.534V75.84l32.093 12.627V24.159L33.954 11.534zm1.565 4.193l9.008 3.544-2.76 3.472-4.758-.165-1.048 1.297-.442-.295v-7.853zm17.001 7.145l-2.091.886-.859-2.048 2.95 1.162zm-5.861 7.754l-1.438.4-1.265-1.119.5-1.162.199-1.528.888.047 1.116 3.362zm-3.37-5.347l-1.903-.977 1.524-.426.379 1.403zm15.037 41.462l2.094-4.308-.283 4.902-1.811-.594zM35.676 50.65l-.158.408v-.625l.158.217zm27.406-2.204l-.663 2.13-3.81 1.352 2.382 1.733-3.615 5.184-.188 4.71-2.953 4.649-3.143-.324S49 60.108 49.095 59.802c.095-.303-.382-8.009-.665-8.352-.287-.341-5.618-3.005-5.618-3.005l-2.188-7.926 3.712-4.007-1.047-3.146 1.808-1 3.426-2.182-.666-2.085 3.711-2.642 3.236 2.184 9.678 1.293v20.478l-1.4-.966zM67.908 24.156v64.302L100 76.131V11.827L67.908 24.156zm20.171 9.324l1.544 3.721-2.831 2.016 1.461-2.205-.174-3.532zm1.655 33.374l-2.569-1.177s-5.142 2.201-5.235 2.58c-.096.379.571-5.12.571-5.12l5.327-5.92s3.714-1.654 3.809-2.029c.096-.379 2.666 5.469 2.666 5.469l-4.569 6.197zm7.423-2.166l-2.095 3.992-1.144-.357 3.239-3.635zm-5.985-10.502l-2.75-.795c.26-.203 2.922-1.637 2.922-1.637l2.488.691-2.66 1.741zm-4.037-5.029l-.855.946-1.289-4.851 2.144 3.905zm-1.376 2.79l.688 2.816-1.805.077 1.117-2.893zM83.445 55.1l-1.461-.572 2.23-4.146.518 2.782-1.287 1.936zm1.457 1.698l-3.691.29-3.005-2.341-.085-1.201 2.916 2.065 3.865 1.187zM70.51 27.873l9.708-1.566s13.229-2.575 12.847-2.429c-.248.095-2.903 3.335-2.903 3.335l.192 2.743-.979-.142-1.825-1.424-2.856.755-.666 2.421 2.854 1.525-3.43 5.759.765 4.377-2.858 4.629-.283 2.957-1.428 2.26-.666-.314-2.854-5.512-2.95 4.096-.57 3.864-2.666-5.356-.465.04V28.539l1.033-.666zM0 24.153v64.299l32.091-12.123V12.03L0 24.153zm28.917-2.794l-.954 2.069-1.617.611-1.713-.15-4.377 4.275 1.711.946 2.381-2.95 3.046-1.149 1.142 2.873-3.807 4.398-3.616 4.215-2 3.262-.093 2.313-3.237-.486-2.282 2.23.76 2.789 2.094-1.819 2.569 3.818 2.76-2.525 5.901 1.531 2.942 1.764v6.833l-.182.613s-4.093 8.725-3.998 8.231c.096-.491-1.426 3.616-1.426 3.616l.951 3.285-2.855-1.085-1.808-10.937-3.139-4.621.665-5.724-4.378-1.534-3.141-.297-3.046-5.91s.952-5.374 1.236-5.597c.286-.22-.189-4.029-.189-4.029l-5.331 3.153-.284-1.601s6.185-6.893 6.09-6.515c-.095.378 5.995-1.239 5.995-1.239l3.235-2.931 5.71-3.067 2.474-2.531 3.419-1.29v2.479l-1.134-.457-2.666 2.259 2.192.881zM22.16 42.938l-1.428 1.678-2.953-.822 4.381-.856z"></path></g><defs data-v-fde0c5aa=""><!----></defs><g data-v-fde0c5aa="" id="888e2f16-aa48-4b4f-8049-1afdd3ce2b2a" fill="#04291D" transform="matrix(0.3598649154910825,0,0,0.3598649154910825,52.30207429218998,190.9916175551301)"><path d="M5.25 2.10C2.44 2.10 0.55 4.21 0.55 6.85C0.55 9.48 2.44 11.59 5.25 11.59C8.06 11.59 9.95 9.48 9.95 6.85C9.95 4.21 8.06 2.10 5.25 2.10ZM5.25 10.57C3.00 10.57 1.60 8.93 1.60 6.85C1.60 4.76 3.00 3.12 5.25 3.12C7.50 3.12 8.90 4.76 8.90 6.85C8.90 8.93 7.50 10.57 5.25 10.57ZM21.97 11.59C24.01 11.59 25.35 9.98 25.35 7.98C25.35 5.98 24.01 4.37 21.97 4.37C20.80 4.37 19.98 4.84 19.46 5.60L19.46 4.48L18.41 4.48L18.41 14.25L19.46 14.25L19.46 10.35C19.98 11.10 20.80 11.59 21.97 11.59ZM21.83 5.32C23.38 5.32 24.30 6.54 24.30 7.98C24.30 9.42 23.38 10.64 21.83 10.64C20.27 10.64 19.40 9.42 19.40 7.98C19.40 6.54 20.27 5.32 21.83 5.32ZM36.85 10.64C35.43 10.64 34.52 9.65 34.37 8.40L40.24 8.40L40.24 7.98C40.24 5.98 38.91 4.37 36.76 4.37C34.62 4.37 33.29 5.98 33.29 7.98C33.29 9.98 34.69 11.59 36.83 11.59C38.50 11.59 39.54 10.72 40.03 9.46L38.88 9.46C38.50 10.16 37.83 10.64 36.85 10.64ZM36.76 5.32C38.11 5.32 38.95 6.23 39.14 7.42L34.38 7.42C34.58 6.23 35.42 5.32 36.76 5.32ZM48.52 4.48L48.52 11.48L49.57 11.48L49.57 7.45C49.57 6.19 50.53 5.32 51.69 5.32C52.84 5.32 53.65 6.16 53.65 7.43L53.65 11.48L54.70 11.48L54.70 7.41C54.70 5.42 53.34 4.37 51.90 4.37C50.76 4.37 50.08 4.90 49.57 5.57L49.57 4.48ZM75.24 11.48L75.24 5.40L76.85 5.40L76.85 4.48L75.24 4.48L75.24 1.97L74.19 1.97L74.19 4.48L72.76 4.48L72.76 5.40L74.19 5.40L74.19 11.48ZM87.89 4.37C85.75 4.37 84.42 5.98 84.42 7.98C84.42 9.98 85.75 11.59 87.89 11.59C90.03 11.59 91.36 9.98 91.36 7.98C91.36 5.98 90.03 4.37 87.89 4.37ZM87.89 10.64C86.34 10.64 85.47 9.42 85.47 7.98C85.47 6.54 86.34 5.32 87.89 5.32C89.45 5.32 90.31 6.54 90.31 7.98C90.31 9.42 89.45 10.64 87.89 10.64ZM103.31 11.59C105.35 11.59 106.69 9.98 106.69 7.98C106.69 5.98 105.35 4.37 103.31 4.37C102.14 4.37 101.32 4.84 100.80 5.60L100.80 4.48L99.75 4.48L99.75 14.25L100.80 14.25L100.80 10.35C101.32 11.10 102.14 11.59 103.31 11.59ZM103.17 5.32C104.72 5.32 105.64 6.54 105.64 7.98C105.64 9.42 104.72 10.64 103.17 10.64C101.61 10.64 100.74 9.42 100.74 7.98C100.74 6.54 101.61 5.32 103.17 5.32ZM118.10 4.37C115.96 4.37 114.63 5.98 114.63 7.98C114.63 9.98 115.96 11.59 118.10 11.59C120.25 11.59 121.58 9.98 121.58 7.98C121.58 5.98 120.25 4.37 118.10 4.37ZM118.10 10.64C116.55 10.64 115.68 9.42 115.68 7.98C115.68 6.54 116.55 5.32 118.10 5.32C119.66 5.32 120.53 6.54 120.53 7.98C120.53 9.42 119.66 10.64 118.10 10.64ZM135.42 4.48L135.42 5.60C134.90 4.84 134.08 4.37 132.92 4.37C130.87 4.37 129.53 5.92 129.53 7.92C129.53 9.93 130.87 11.48 132.92 11.48C134.08 11.48 134.90 10.99 135.42 10.23L135.42 11.20C135.42 12.64 134.72 13.41 133.11 13.41C132.05 13.41 131.35 13.01 131.07 12.32L129.91 12.32C130.30 13.54 131.40 14.36 133.17 14.36C135.27 14.36 136.47 13.27 136.47 11.27L136.47 4.48ZM133.06 10.53C131.50 10.53 130.58 9.37 130.58 7.92C130.58 6.48 131.50 5.32 133.06 5.32C134.58 5.32 135.48 6.48 135.48 7.92C135.48 9.37 134.58 10.53 133.06 10.53ZM148.92 4.37C147.18 4.37 146.48 5.73 146.34 6.20L146.34 4.48L145.29 4.48L145.29 11.48L146.34 11.48L146.34 8.40C146.34 6.86 147.29 5.42 148.86 5.42L148.99 5.42L148.99 4.37ZM159.89 4.37C157.85 4.37 156.51 5.98 156.51 7.98C156.51 9.98 157.85 11.59 159.89 11.59C161.06 11.59 161.88 11.12 162.40 10.36L162.40 11.48L163.45 11.48L163.45 4.48L162.40 4.48L162.40 5.61C161.88 4.86 161.06 4.37 159.89 4.37ZM160.03 10.64C158.48 10.64 157.56 9.42 157.56 7.98C157.56 6.54 158.48 5.32 160.03 5.32C161.59 5.32 162.46 6.54 162.46 7.98C162.46 9.42 161.59 10.64 160.03 10.64ZM175.83 11.59C177.87 11.59 179.21 9.98 179.21 7.98C179.21 5.98 177.87 4.37 175.83 4.37C174.66 4.37 173.84 4.84 173.32 5.60L173.32 4.48L172.27 4.48L172.27 14.25L173.32 14.25L173.32 10.35C173.84 11.10 174.66 11.59 175.83 11.59ZM175.69 5.32C177.24 5.32 178.16 6.54 178.16 7.98C178.16 9.42 177.24 10.64 175.69 10.64C174.13 10.64 173.26 9.42 173.26 7.98C173.26 6.54 174.13 5.32 175.69 5.32ZM187.59 1.68L187.59 11.48L188.64 11.48L188.64 7.45C188.64 6.19 189.59 5.32 190.75 5.32C191.90 5.32 192.71 6.16 192.71 7.43L192.71 11.48L193.76 11.48L193.76 7.41C193.76 5.42 192.40 4.37 190.96 4.37C189.83 4.37 189.14 4.90 188.64 5.57L188.64 1.68ZM202.51 11.48L203.56 11.48L203.56 4.48L202.51 4.48ZM202.47 1.93L202.47 3.30L203.60 3.30L203.60 1.93ZM215.53 10.64C213.98 10.64 213.00 9.42 213.00 7.98C213.00 6.54 213.98 5.32 215.53 5.32C216.52 5.32 217.24 5.88 217.56 6.68L218.69 6.68C218.29 5.32 217.04 4.37 215.39 4.37C213.29 4.37 211.95 5.98 211.95 7.98C211.95 9.98 213.29 11.59 215.39 11.59C217.04 11.59 218.29 10.64 218.69 9.28L217.56 9.28C217.24 10.08 216.52 10.64 215.53 10.64ZM242.70 7.29C242.70 6.05 243.56 5.32 244.59 5.32C245.57 5.32 246.33 6.10 246.33 7.28L246.33 11.48L247.38 11.48L247.38 7.25C247.38 5.49 246.13 4.37 244.79 4.37C243.40 4.37 242.66 5.31 242.38 5.78C241.93 4.89 241.08 4.37 240.16 4.37C239.02 4.37 238.35 4.98 238.03 5.54L238.03 4.48L236.98 4.48L236.98 11.48L238.03 11.48L238.03 7.29C238.03 6.05 238.88 5.32 239.92 5.32C240.90 5.32 241.65 6.10 241.65 7.28L241.65 11.48L242.70 11.48ZM259.08 4.37C257.04 4.37 255.70 5.98 255.70 7.98C255.70 9.98 257.04 11.59 259.08 11.59C260.25 11.59 261.07 11.12 261.59 10.36L261.59 11.48L262.64 11.48L262.64 4.48L261.59 4.48L261.59 5.61C261.07 4.86 260.25 4.37 259.08 4.37ZM259.22 10.64C257.67 10.64 256.75 9.42 256.75 7.98C256.75 6.54 257.67 5.32 259.22 5.32C260.78 5.32 261.65 6.54 261.65 7.98C261.65 9.42 260.78 10.64 259.22 10.64ZM275.02 11.59C277.06 11.59 278.40 9.98 278.40 7.98C278.40 5.98 277.06 4.37 275.02 4.37C273.85 4.37 273.03 4.84 272.51 5.60L272.51 4.48L271.46 4.48L271.46 14.25L272.51 14.25L272.51 10.35C273.03 11.10 273.85 11.59 275.02 11.59ZM274.88 5.32C276.43 5.32 277.35 6.54 277.35 7.98C277.35 9.42 276.43 10.64 274.88 10.64C273.32 10.64 272.45 9.42 272.45 7.98C272.45 6.54 273.32 5.32 274.88 5.32ZM299.91 2.56L299.91 1.57L299.82 1.57C298.21 1.57 297.23 2.34 297.23 3.86L297.23 4.48L296.03 4.48L296.03 5.40L297.23 5.40L297.23 11.48L298.28 11.48L298.28 5.40L299.91 5.40L299.91 4.48L298.28 4.48L298.28 3.95C298.28 2.98 298.79 2.56 299.77 2.56ZM310.95 4.37C308.81 4.37 307.48 5.98 307.48 7.98C307.48 9.98 308.81 11.59 310.95 11.59C313.10 11.59 314.43 9.98 314.43 7.98C314.43 5.98 313.10 4.37 310.95 4.37ZM310.95 10.64C309.40 10.64 308.53 9.42 308.53 7.98C308.53 6.54 309.40 5.32 310.95 5.32C312.51 5.32 313.38 6.54 313.38 7.98C313.38 9.42 312.51 10.64 310.95 10.64ZM326.44 4.37C324.70 4.37 324.00 5.73 323.86 6.20L323.86 4.48L322.81 4.48L322.81 11.48L323.86 11.48L323.86 8.40C323.86 6.86 324.81 5.42 326.38 5.42L326.51 5.42L326.51 4.37ZM350.63 4.48L349.48 4.48L347.19 10.22L344.93 4.48L343.77 4.48L346.63 11.38L345.35 14.25L346.49 14.25ZM361.51 4.37C359.37 4.37 358.04 5.98 358.04 7.98C358.04 9.98 359.37 11.59 361.51 11.59C363.65 11.59 364.98 9.98 364.98 7.98C364.98 5.98 363.65 4.37 361.51 4.37ZM361.51 10.64C359.95 10.64 359.09 9.42 359.09 7.98C359.09 6.54 359.95 5.32 361.51 5.32C363.06 5.32 363.93 6.54 363.93 7.98C363.93 9.42 363.06 10.64 361.51 10.64ZM379.47 11.48L379.47 4.48L378.42 4.48L378.42 8.51C378.42 9.77 377.47 10.64 376.31 10.64C375.16 10.64 374.35 9.80 374.35 8.53L374.35 4.48L373.30 4.48L373.30 8.55C373.30 10.54 374.65 11.59 376.10 11.59C377.23 11.59 377.92 11.06 378.42 10.39L378.42 11.48ZM391.92 4.37C390.18 4.37 389.48 5.73 389.34 6.20L389.34 4.48L388.29 4.48L388.29 11.48L389.34 11.48L389.34 8.40C389.34 6.86 390.29 5.42 391.86 5.42L391.99 5.42L391.99 4.37ZM413.06 4.37C411.01 4.37 409.67 5.98 409.67 7.98C409.67 9.98 411.01 11.59 413.06 11.59C414.22 11.59 415.04 11.12 415.56 10.36L415.56 11.48L416.61 11.48L416.61 4.48L415.56 4.48L415.56 5.61C415.04 4.86 414.22 4.37 413.06 4.37ZM413.20 10.64C411.64 10.64 410.72 9.42 410.72 7.98C410.72 6.54 411.64 5.32 413.20 5.32C414.75 5.32 415.62 6.54 415.62 7.98C415.62 9.42 414.75 10.64 413.20 10.64ZM428.39 4.37C426.34 4.37 425.00 5.98 425.00 7.98C425.00 9.98 426.34 11.59 428.39 11.59C429.55 11.59 430.37 11.12 430.89 10.36L430.89 11.48L431.94 11.48L431.94 1.68L430.89 1.68L430.89 5.61C430.37 4.86 429.55 4.37 428.39 4.37ZM428.53 10.64C426.97 10.64 426.05 9.42 426.05 7.98C426.05 6.54 426.97 5.32 428.53 5.32C430.08 5.32 430.95 6.54 430.95 7.98C430.95 9.42 430.08 10.64 428.53 10.64ZM445.48 4.48L443.28 10.36L441.07 4.48L439.92 4.48L442.67 11.48L443.90 11.48L446.63 4.48ZM457.65 10.64C456.23 10.64 455.32 9.65 455.17 8.40L461.03 8.40L461.03 7.98C461.03 5.98 459.70 4.37 457.56 4.37C455.42 4.37 454.09 5.98 454.09 7.98C454.09 9.98 455.49 11.59 457.63 11.59C459.30 11.59 460.33 10.72 460.82 9.46L459.68 9.46C459.30 10.16 458.63 10.64 457.65 10.64ZM457.56 5.32C458.91 5.32 459.75 6.23 459.94 7.42L455.18 7.42C455.38 6.23 456.22 5.32 457.56 5.32ZM469.32 4.48L469.32 11.48L470.37 11.48L470.37 7.45C470.37 6.19 471.32 5.32 472.49 5.32C473.63 5.32 474.45 6.16 474.45 7.43L474.45 11.48L475.50 11.48L475.50 7.41C475.50 5.42 474.14 4.37 472.70 4.37C471.56 4.37 470.88 4.90 470.37 5.57L470.37 4.48ZM485.88 11.48L485.88 5.40L487.49 5.40L487.49 4.48L485.88 4.48L485.88 1.97L484.83 1.97L484.83 4.48L483.41 4.48L483.41 5.40L484.83 5.40L484.83 11.48ZM501.75 11.48L501.75 4.48L500.70 4.48L500.70 8.51C500.70 9.77 499.74 10.64 498.58 10.64C497.43 10.64 496.62 9.80 496.62 8.53L496.62 4.48L495.57 4.48L495.57 8.55C495.57 10.54 496.93 11.59 498.37 11.59C499.51 11.59 500.19 11.06 500.70 10.39L500.70 11.48ZM514.19 4.37C512.46 4.37 511.76 5.73 511.62 6.20L511.62 4.48L510.57 4.48L510.57 11.48L511.62 11.48L511.62 8.40C511.62 6.86 512.57 5.42 514.14 5.42L514.26 5.42L514.26 4.37ZM525.34 10.64C523.92 10.64 523.01 9.65 522.86 8.40L528.72 8.40L528.72 7.98C528.72 5.98 527.39 4.37 525.25 4.37C523.11 4.37 521.78 5.98 521.78 7.98C521.78 9.98 523.18 11.59 525.32 11.59C526.99 11.59 528.02 10.72 528.51 9.46L527.37 9.46C526.99 10.16 526.32 10.64 525.34 10.64ZM525.25 5.32C526.60 5.32 527.44 6.23 527.63 7.42L522.87 7.42C523.07 6.23 523.91 5.32 525.25 5.32ZM539.45 4.37C537.64 4.37 536.70 5.11 536.70 6.37C536.70 8.93 541.37 7.84 541.37 9.59C541.37 10.54 540.15 10.70 539.57 10.70C538.22 10.70 537.68 10.00 537.61 9.28L536.52 9.28C536.59 10.51 537.61 11.59 539.56 11.59C541.30 11.59 542.42 10.85 542.42 9.49C542.42 6.86 537.75 7.95 537.75 6.27C537.75 5.59 538.33 5.26 539.42 5.26C540.60 5.26 541.04 5.75 541.13 6.36L542.19 6.36C542.07 5.33 541.30 4.37 539.45 4.37Z"></path></g></svg>