<svg data-v-423bf9ae="" xmlns="http://www.w3.org/2000/svg" viewBox="0 0 611.5588277182366 60" class="font"><!----><!----><!----><g data-v-423bf9ae="" id="717a1bbf-39b6-406c-a9d4-72db229e6b9a" fill="white" transform="matrix(4.4117648915023615,0,0,4.4117648915023615,-2.9117634937838375,-24.1323556114234)"><path d="M0.66 12.20L0.66 12.20L0.66 12.20Q0.66 10.99 0.92 10.19L0.92 10.19L0.92 10.19Q1.18 9.40 1.75 8.93L1.75 8.93L1.75 8.93Q2.32 8.47 3.24 8.28L3.24 8.28L3.24 8.28Q4.16 8.09 5.47 8.09L5.47 8.09L5.47 8.09Q6.78 8.09 7.70 8.28L7.70 8.28L7.70 8.28Q8.61 8.47 9.19 8.93L9.19 8.93L9.19 8.93Q9.76 9.40 10.02 10.19L10.02 10.19L10.02 10.19Q10.28 10.99 10.28 12.20L10.28 12.20L10.28 12.20Q10.28 13.41 10.02 14.21L10.02 14.21L10.02 14.21Q9.76 15.00 9.19 15.48L9.19 15.48L9.19 15.48Q8.61 15.95 7.70 16.14L7.70 16.14L7.70 16.14Q6.78 16.34 5.47 16.34L5.47 16.34L5.47 16.34Q4.16 16.34 3.24 16.14L3.24 16.14L3.24 16.14Q2.32 15.95 1.75 15.48L1.75 15.48L1.75 15.48Q1.18 15.00 0.92 14.21L0.92 14.21L0.92 14.21Q0.66 13.41 0.66 12.20ZM1.97 12.20L1.97 12.20L1.97 12.20Q1.97 12.85 2.02 13.34L2.02 13.34L2.02 13.34Q2.06 13.82 2.20 14.17L2.20 14.17L2.20 14.17Q2.33 14.52 2.57 14.74L2.57 14.74L2.57 14.74Q2.81 14.96 3.20 15.09L3.20 15.09L3.20 15.09Q3.59 15.22 4.15 15.26L4.15 15.26L4.15 15.26Q4.70 15.31 5.47 15.31L5.47 15.31L5.47 15.31Q6.13 15.31 6.64 15.28L6.64 15.28L6.64 15.28Q7.16 15.25 7.54 15.14L7.54 15.14L7.54 15.14Q7.93 15.03 8.20 14.83L8.20 14.83L8.20 14.83Q8.48 14.63 8.64 14.28L8.64 14.28L8.64 14.28Q8.81 13.93 8.89 13.42L8.89 13.42L8.89 13.42Q8.97 12.91 8.97 12.20L8.97 12.20L8.97 12.20Q8.97 11.49 8.89 11.00L8.89 11.00L8.89 11.00Q8.81 10.50 8.64 10.17L8.64 10.17L8.64 10.17Q8.48 9.83 8.20 9.64L8.20 9.64L8.20 9.64Q7.93 9.44 7.54 9.34L7.54 9.34L7.54 9.34Q7.16 9.24 6.64 9.21L6.64 9.21L6.64 9.21Q6.13 9.19 5.47 9.19L5.47 9.19L5.47 9.19Q4.81 9.19 4.30 9.21L4.30 9.21L4.30 9.21Q3.78 9.24 3.39 9.34L3.39 9.34L3.39 9.34Q3.01 9.44 2.73 9.64L2.73 9.64L2.73 9.64Q2.46 9.83 2.29 10.17L2.29 10.17L2.29 10.17Q2.13 10.50 2.05 11.00L2.05 11.00L2.05 11.00Q1.97 11.49 1.97 12.20ZM18.16 9.31L14.44 9.31L14.44 16.19L13.13 16.19L13.13 9.31L11.81 9.31L11.81 8.31L13.13 8.31L13.13 8.24L13.13 8.24Q13.13 7.44 13.30 6.91L13.30 6.91L13.30 6.91Q13.48 6.38 13.89 6.06L13.89 6.06L13.89 6.06Q14.30 5.74 14.97 5.60L14.97 5.60L14.97 5.60Q15.65 5.47 16.63 5.47L16.63 5.47L18.16 5.47L18.16 6.56L16.63 6.56L16.63 6.56Q16.00 6.56 15.59 6.59L15.59 6.59L15.59 6.59Q15.17 6.62 14.91 6.77L14.91 6.77L14.91 6.77Q14.66 6.93 14.55 7.27L14.55 7.27L14.55 7.27Q14.44 7.62 14.44 8.24L14.44 8.24L14.44 8.31L18.16 8.31L18.16 9.31ZM25.38 9.31L21.66 9.31L21.66 16.19L20.34 16.19L20.34 9.31L19.03 9.31L19.03 8.31L20.34 8.31L20.34 8.24L20.34 8.24Q20.34 7.44 20.52 6.91L20.52 6.91L20.52 6.91Q20.70 6.38 21.11 6.06L21.11 6.06L21.11 6.06Q21.52 5.74 22.19 5.60L22.19 5.60L22.19 5.60Q22.87 5.47 23.85 5.47L23.85 5.47L25.38 5.47L25.38 6.56L23.84 6.56L23.84 6.56Q23.22 6.56 22.80 6.59L22.80 6.59L22.80 6.59Q22.39 6.62 22.13 6.77L22.13 6.77L22.13 6.77Q21.88 6.93 21.77 7.27L21.77 7.27L21.77 7.27Q21.66 7.62 21.66 8.24L21.66 8.24L21.66 8.31L25.38 8.31L25.38 9.31ZM34.13 10.88L33.03 10.88L33.03 10.88Q33.03 10.38 32.96 10.06L32.96 10.06L32.96 10.06Q32.89 9.73 32.62 9.54L32.62 9.54L32.62 9.54Q32.35 9.34 31.83 9.27L31.83 9.27L31.83 9.27Q31.31 9.19 30.41 9.19L30.41 9.19L30.41 9.19Q29.52 9.19 28.97 9.34L28.97 9.34L28.97 9.34Q28.42 9.50 28.10 9.78L28.10 9.78L28.10 9.78Q27.79 10.06 27.68 10.45L27.68 10.45L27.68 10.45Q27.56 10.83 27.56 11.31L27.56 11.31L27.56 16.19L26.25 16.19L26.25 8.31L27.56 8.31L27.56 9.56L27.56 9.56Q27.63 9.35 27.82 9.10L27.82 9.10L27.82 9.10Q28 8.84 28.38 8.62L28.38 8.62L28.38 8.62Q28.75 8.39 29.35 8.24L29.35 8.24L29.35 8.24Q29.95 8.09 30.84 8.09L30.84 8.09L30.84 8.09Q31.87 8.09 32.51 8.27L32.51 8.27L32.51 8.27Q33.15 8.46 33.51 8.81L33.51 8.81L33.51 8.81Q33.87 9.16 34.00 9.68L34.00 9.68L34.00 9.68Q34.13 10.20 34.13 10.88L34.13 10.88ZM34.78 12.20L34.78 12.20L34.78 12.20Q34.78 10.99 35.04 10.19L35.04 10.19L35.04 10.19Q35.30 9.40 35.88 8.93L35.88 8.93L35.88 8.93Q36.45 8.47 37.37 8.28L37.37 8.28L37.37 8.28Q38.28 8.09 39.59 8.09L39.59 8.09L39.59 8.09Q40.91 8.09 41.82 8.28L41.82 8.28L41.82 8.28Q42.74 8.47 43.31 8.93L43.31 8.93L43.31 8.93Q43.89 9.40 44.15 10.19L44.15 10.19L44.15 10.19Q44.41 10.99 44.41 12.20L44.41 12.20L44.41 12.20Q44.41 13.41 44.15 14.21L44.15 14.21L44.15 14.21Q43.89 15.00 43.31 15.48L43.31 15.48L43.31 15.48Q42.74 15.95 41.82 16.14L41.82 16.14L41.82 16.14Q40.91 16.34 39.59 16.34L39.59 16.34L39.59 16.34Q38.28 16.34 37.37 16.14L37.37 16.14L37.37 16.14Q36.45 15.95 35.88 15.48L35.88 15.48L35.88 15.48Q35.30 15.00 35.04 14.21L35.04 14.21L35.04 14.21Q34.78 13.41 34.78 12.20ZM36.09 12.20L36.09 12.20L36.09 12.20Q36.09 12.85 36.14 13.34L36.14 13.34L36.14 13.34Q36.19 13.82 36.32 14.17L36.32 14.17L36.32 14.17Q36.46 14.52 36.70 14.74L36.70 14.74L36.70 14.74Q36.93 14.96 37.32 15.09L37.32 15.09L37.32 15.09Q37.71 15.22 38.27 15.26L38.27 15.26L38.27 15.26Q38.83 15.31 39.59 15.31L39.59 15.31L39.59 15.31Q40.25 15.31 40.77 15.28L40.77 15.28L40.77 15.28Q41.28 15.25 41.67 15.14L41.67 15.14L41.67 15.14Q42.05 15.03 42.33 14.83L42.33 14.83L42.33 14.83Q42.60 14.63 42.77 14.28L42.77 14.28L42.77 14.28Q42.94 13.93 43.02 13.42L43.02 13.42L43.02 13.42Q43.09 12.91 43.09 12.20L43.09 12.20L43.09 12.20Q43.09 11.49 43.02 11.00L43.02 11.00L43.02 11.00Q42.94 10.50 42.77 10.17L42.77 10.17L42.77 10.17Q42.60 9.83 42.33 9.64L42.33 9.64L42.33 9.64Q42.05 9.44 41.67 9.34L41.67 9.34L41.67 9.34Q41.28 9.24 40.77 9.21L40.77 9.21L40.77 9.21Q40.25 9.19 39.59 9.19L39.59 9.19L39.59 9.19Q38.94 9.19 38.42 9.21L38.42 9.21L38.42 9.21Q37.91 9.24 37.52 9.34L37.52 9.34L37.52 9.34Q37.13 9.44 36.86 9.64L36.86 9.64L36.86 9.64Q36.59 9.83 36.42 10.17L36.42 10.17L36.42 10.17Q36.25 10.50 36.17 11.00L36.17 11.00L36.17 11.00Q36.09 11.49 36.09 12.20ZM53.78 16.19L53.78 15.11L53.78 15.11Q53.76 15.19 53.47 15.52L53.47 15.52L53.47 15.52Q53.27 15.76 52.92 15.95L52.92 15.95L52.92 15.95Q52.58 16.14 52.01 16.25L52.01 16.25L52.01 16.25Q51.44 16.35 50.51 16.35L50.51 16.35L50.51 16.35Q49.27 16.35 48.40 16.23L48.40 16.23L48.40 16.23Q47.52 16.10 46.97 15.84L46.97 15.84L46.97 15.84Q46.42 15.57 46.16 15.16L46.16 15.16L46.16 15.16Q45.90 14.75 45.90 14.18L45.90 14.18L45.90 14.18Q45.90 13.59 46.04 13.18L46.04 13.18L46.04 13.18Q46.18 12.76 46.45 12.48L46.45 12.48L46.45 12.48Q46.72 12.20 47.11 12.04L47.11 12.04L47.11 12.04Q47.49 11.89 47.98 11.81L47.98 11.81L47.98 11.81Q48.47 11.72 49.05 11.70L49.05 11.70L49.05 11.70Q49.63 11.68 50.29 11.68L50.29 11.68L50.29 11.68Q51.22 11.68 51.85 11.76L51.85 11.76L51.85 11.76Q52.48 11.84 52.88 11.96L52.88 11.96L52.88 11.96Q53.28 12.08 53.48 12.22L53.48 12.22L53.48 12.22Q53.69 12.35 53.78 12.47L53.78 12.47L53.78 12.47Q53.78 11.70 53.71 11.16L53.71 11.16L53.71 11.16Q53.65 10.62 53.50 10.26L53.50 10.26L53.50 10.26Q53.35 9.90 53.12 9.68L53.12 9.68L53.12 9.68Q52.89 9.47 52.55 9.36L52.55 9.36L52.55 9.36Q52.21 9.25 51.76 9.22L51.76 9.22L51.76 9.22Q51.31 9.19 50.73 9.19L50.73 9.19L50.73 9.19Q49.83 9.19 49.23 9.23L49.23 9.23L49.23 9.23Q48.64 9.28 48.29 9.41L48.29 9.41L48.29 9.41Q47.94 9.54 47.80 9.77L47.80 9.77L47.80 9.77Q47.65 9.99 47.65 10.36L47.65 10.36L46.34 10.36L46.34 10.36Q46.34 9.74 46.56 9.31L46.56 9.31L46.56 9.31Q46.79 8.88 47.30 8.61L47.30 8.61L47.30 8.61Q47.82 8.34 48.66 8.22L48.66 8.22L48.66 8.22Q49.50 8.09 50.73 8.09L50.73 8.09L50.73 8.09Q51.93 8.09 52.77 8.29L52.77 8.29L52.77 8.29Q53.60 8.49 54.12 8.99L54.12 8.99L54.12 8.99Q54.63 9.49 54.86 10.33L54.86 10.33L54.86 10.33Q55.09 11.18 55.09 12.47L55.09 12.47L55.09 16.19L53.78 16.19ZM50.73 15.31L50.73 15.31L50.73 15.31Q51.60 15.31 52.18 15.23L52.18 15.23L52.18 15.23Q52.77 15.15 53.12 14.98L53.12 14.98L53.12 14.98Q53.48 14.82 53.63 14.57L53.63 14.57L53.63 14.57Q53.78 14.33 53.78 14L53.78 14L53.78 14Q53.78 13.67 53.60 13.44L53.60 13.44L53.60 13.44Q53.43 13.21 53.02 13.07L53.02 13.07L53.02 13.07Q52.62 12.93 51.95 12.86L51.95 12.86L51.95 12.86Q51.28 12.80 50.29 12.80L50.29 12.80L50.29 12.80Q49.31 12.80 48.70 12.83L48.70 12.83L48.70 12.83Q48.10 12.87 47.77 12.99L47.77 12.99L47.77 12.99Q47.44 13.11 47.33 13.35L47.33 13.35L47.33 13.35Q47.22 13.59 47.22 14L47.22 14L47.22 14Q47.22 14.41 47.34 14.67L47.34 14.67L47.34 14.67Q47.46 14.92 47.82 15.07L47.82 15.07L47.82 15.07Q48.19 15.21 48.89 15.26L48.89 15.26L48.89 15.26Q49.58 15.31 50.73 15.31ZM61.43 16.34L61.43 16.34L61.43 16.34Q60.12 16.34 59.21 16.15L59.21 16.15L59.21 16.15Q58.29 15.96 57.72 15.49L57.72 15.49L57.72 15.49Q57.14 15.03 56.88 14.24L56.88 14.24L56.88 14.24Q56.62 13.45 56.62 12.26L56.62 12.26L56.62 12.26Q56.62 11.03 56.88 10.23L56.88 10.23L56.88 10.23Q57.14 9.42 57.72 8.95L57.72 8.95L57.72 8.95Q58.29 8.48 59.21 8.29L59.21 8.29L59.21 8.29Q60.12 8.09 61.43 8.09L61.43 8.09L61.43 8.09Q62.36 8.09 62.99 8.19L62.99 8.19L62.99 8.19Q63.62 8.29 64.02 8.43L64.02 8.43L64.02 8.43Q64.42 8.57 64.63 8.74L64.63 8.74L64.63 8.74Q64.84 8.91 64.93 9.05L64.93 9.05L64.93 5.69L66.25 5.69L66.25 16.19L64.93 16.19L64.93 15.02L64.93 15.02Q64.93 15.02 64.61 15.41L64.61 15.41L64.61 15.41Q64.32 15.69 63.97 15.86L63.97 15.86L63.97 15.86Q63.62 16.03 62.99 16.18L62.99 16.18L62.99 16.18Q62.36 16.34 61.43 16.34ZM61.43 15.31L61.43 15.31L61.43 15.31Q62.09 15.31 62.60 15.28L62.60 15.28L62.60 15.28Q63.12 15.25 63.51 15.15L63.51 15.15L63.51 15.15Q63.90 15.05 64.17 14.84L64.17 14.84L64.17 14.84Q64.44 14.64 64.61 14.31L64.61 14.31L64.61 14.31Q64.78 13.97 64.86 13.48L64.86 13.48L64.86 13.48Q64.93 12.98 64.93 12.28L64.93 12.28L64.93 12.28Q64.93 11.56 64.86 11.05L64.86 11.05L64.86 11.05Q64.78 10.54 64.61 10.20L64.61 10.20L64.61 10.20Q64.44 9.85 64.17 9.65L64.17 9.65L64.17 9.65Q63.90 9.45 63.51 9.35L63.51 9.35L63.51 9.35Q63.12 9.24 62.60 9.21L62.60 9.21L62.60 9.21Q62.09 9.19 61.43 9.19L61.43 9.19L61.43 9.19Q60.67 9.19 60.11 9.24L60.11 9.24L60.11 9.24Q59.55 9.28 59.17 9.41L59.17 9.41L59.17 9.41Q58.78 9.53 58.53 9.75L58.53 9.75L58.53 9.75Q58.29 9.97 58.16 10.31L58.16 10.31L58.16 10.31Q58.02 10.65 57.98 11.13L57.98 11.13L57.98 11.13Q57.93 11.61 57.93 12.26L57.93 12.26L57.93 12.26Q57.93 12.91 57.98 13.38L57.98 13.38L57.98 13.38Q58.02 13.86 58.16 14.19L58.16 14.19L58.16 14.19Q58.29 14.53 58.53 14.75L58.53 14.75L58.53 14.75Q58.78 14.97 59.17 15.09L59.17 15.09L59.17 15.09Q59.55 15.22 60.11 15.26L60.11 15.26L60.11 15.26Q60.67 15.31 61.43 15.31ZM76.31 11.31L76.31 16.19L75.00 16.19L75.00 11.74L75.00 11.74Q75.00 11.03 74.90 10.54L74.90 10.54L74.90 10.54Q74.81 10.06 74.53 9.75L74.53 9.75L74.53 9.75Q74.25 9.45 73.73 9.32L73.73 9.32L73.73 9.32Q73.21 9.19 72.37 9.19L72.37 9.19L72.37 9.19Q71.45 9.19 70.85 9.34L70.85 9.34L70.85 9.34Q70.26 9.50 69.92 9.77L69.92 9.77L69.92 9.77Q69.58 10.05 69.44 10.44L69.44 10.44L69.44 10.44Q69.31 10.83 69.31 11.31L69.31 11.31L69.31 16.19L68.00 16.19L68.00 8.31L69.31 8.31L69.31 9.56L69.31 9.56Q69.32 9.54 69.37 9.42L69.37 9.42L69.37 9.42Q69.43 9.30 69.57 9.14L69.57 9.14L69.57 9.14Q69.71 8.98 69.95 8.80L69.95 8.80L69.95 8.80Q70.19 8.61 70.58 8.46L70.58 8.46L70.58 8.46Q70.96 8.30 71.51 8.20L71.51 8.20L71.51 8.20Q72.06 8.09 72.81 8.09L72.81 8.09L72.81 8.09Q73.55 8.09 74.09 8.19L74.09 8.19L74.09 8.19Q74.63 8.28 75.02 8.46L75.02 8.46L75.02 8.46Q75.41 8.64 75.65 8.91L75.65 8.91L75.65 8.91Q75.89 9.18 76.04 9.53L76.04 9.53L76.04 9.53Q76.15 9.34 76.40 9.10L76.40 9.10L76.40 9.10Q76.64 8.85 77.09 8.63L77.09 8.63L77.09 8.63Q77.53 8.40 78.19 8.25L78.19 8.25L78.19 8.25Q78.85 8.09 79.81 8.09L79.81 8.09L79.81 8.09Q80.60 8.09 81.16 8.20L81.16 8.20L81.16 8.20Q81.72 8.31 82.11 8.51L82.11 8.51L82.11 8.51Q82.50 8.72 82.74 9.03L82.74 9.03L82.74 9.03Q82.97 9.34 83.10 9.74L83.10 9.74L83.10 9.74Q83.23 10.15 83.27 10.65L83.27 10.65L83.27 10.65Q83.31 11.16 83.31 11.74L83.31 11.74L83.31 16.19L82.00 16.19L82.00 11.74L82.00 11.74Q82.00 11.03 81.90 10.54L81.90 10.54L81.90 10.54Q81.81 10.06 81.53 9.75L81.53 9.75L81.53 9.75Q81.25 9.45 80.73 9.32L80.73 9.32L80.73 9.32Q80.21 9.19 79.37 9.19L79.37 9.19L79.37 9.19Q78.45 9.19 77.85 9.34L77.85 9.34L77.85 9.34Q77.26 9.50 76.92 9.77L76.92 9.77L76.92 9.77Q76.58 10.05 76.44 10.44L76.44 10.44L76.44 10.44Q76.31 10.83 76.31 11.31L76.31 11.31ZM92.90 16.19L92.90 15.11L92.90 15.11Q92.88 15.19 92.59 15.52L92.59 15.52L92.59 15.52Q92.39 15.76 92.05 15.95L92.05 15.95L92.05 15.95Q91.70 16.14 91.13 16.25L91.13 16.25L91.13 16.25Q90.56 16.35 89.63 16.35L89.63 16.35L89.63 16.35Q88.40 16.35 87.52 16.23L87.52 16.23L87.52 16.23Q86.65 16.10 86.09 15.84L86.09 15.84L86.09 15.84Q85.54 15.57 85.28 15.16L85.28 15.16L85.28 15.16Q85.03 14.75 85.03 14.18L85.03 14.18L85.03 14.18Q85.03 13.59 85.17 13.18L85.17 13.18L85.17 13.18Q85.31 12.76 85.58 12.48L85.58 12.48L85.58 12.48Q85.85 12.20 86.23 12.04L86.23 12.04L86.23 12.04Q86.61 11.89 87.10 11.81L87.10 11.81L87.10 11.81Q87.59 11.72 88.17 11.70L88.17 11.70L88.17 11.70Q88.75 11.68 89.41 11.68L89.41 11.68L89.41 11.68Q90.34 11.68 90.97 11.76L90.97 11.76L90.97 11.76Q91.60 11.84 92.00 11.96L92.00 11.96L92.00 11.96Q92.40 12.08 92.61 12.22L92.61 12.22L92.61 12.22Q92.81 12.35 92.90 12.47L92.90 12.47L92.90 12.47Q92.90 11.70 92.84 11.16L92.84 11.16L92.84 11.16Q92.77 10.62 92.62 10.26L92.62 10.26L92.62 10.26Q92.48 9.90 92.24 9.68L92.24 9.68L92.24 9.68Q92.01 9.47 91.67 9.36L91.67 9.36L91.67 9.36Q91.33 9.25 90.88 9.22L90.88 9.22L90.88 9.22Q90.43 9.19 89.85 9.19L89.85 9.19L89.85 9.19Q88.95 9.19 88.35 9.23L88.35 9.23L88.35 9.23Q87.76 9.28 87.41 9.41L87.41 9.41L87.41 9.41Q87.06 9.54 86.92 9.77L86.92 9.77L86.92 9.77Q86.78 9.99 86.78 10.36L86.78 10.36L85.46 10.36L85.46 10.36Q85.46 9.74 85.69 9.31L85.69 9.31L85.69 9.31Q85.91 8.88 86.42 8.61L86.42 8.61L86.42 8.61Q86.94 8.34 87.78 8.22L87.78 8.22L87.78 8.22Q88.62 8.09 89.85 8.09L89.85 8.09L89.85 8.09Q91.05 8.09 91.89 8.29L91.89 8.29L91.89 8.29Q92.72 8.49 93.24 8.99L93.24 8.99L93.24 8.99Q93.75 9.49 93.98 10.33L93.98 10.33L93.98 10.33Q94.21 11.18 94.21 12.47L94.21 12.47L94.21 16.19L92.90 16.19ZM89.85 15.31L89.85 15.31L89.85 15.31Q90.72 15.31 91.30 15.23L91.30 15.23L91.30 15.23Q91.89 15.15 92.24 14.98L92.24 14.98L92.24 14.98Q92.60 14.82 92.75 14.57L92.75 14.57L92.75 14.57Q92.90 14.33 92.90 14L92.90 14L92.90 14Q92.90 13.67 92.73 13.44L92.73 13.44L92.73 13.44Q92.55 13.21 92.15 13.07L92.15 13.07L92.15 13.07Q91.74 12.93 91.07 12.86L91.07 12.86L91.07 12.86Q90.40 12.80 89.41 12.80L89.41 12.80L89.41 12.80Q88.43 12.80 87.82 12.83L87.82 12.83L87.82 12.83Q87.22 12.87 86.89 12.99L86.89 12.99L86.89 12.99Q86.56 13.11 86.45 13.35L86.45 13.35L86.45 13.35Q86.34 13.59 86.34 14L86.34 14L86.34 14Q86.34 14.41 86.46 14.67L86.46 14.67L86.46 14.67Q86.58 14.92 86.95 15.07L86.95 15.07L86.95 15.07Q87.32 15.21 88.01 15.26L88.01 15.26L88.01 15.26Q88.70 15.31 89.85 15.31ZM100.78 8.09L100.78 8.09L100.78 8.09Q102.09 8.09 103.00 8.29L103.00 8.29L103.00 8.29Q103.92 8.49 104.49 8.97L104.49 8.97L104.49 8.97Q105.07 9.45 105.33 10.25L105.33 10.25L105.33 10.25Q105.59 11.05 105.59 12.26L105.59 12.26L105.59 12.26Q105.59 13.45 105.33 14.24L105.33 14.24L105.33 14.24Q105.07 15.03 104.49 15.49L104.49 15.49L104.49 15.49Q103.92 15.96 103.00 16.15L103.00 16.15L103.00 16.15Q102.09 16.34 100.78 16.34L100.78 16.34L100.78 16.34Q99.84 16.34 99.21 16.24L99.21 16.24L99.21 16.24Q98.58 16.13 98.18 15.98L98.18 15.98L98.18 15.98Q97.78 15.83 97.57 15.65L97.57 15.65L97.57 15.65Q97.36 15.47 97.28 15.31L97.28 15.31L97.28 18.81L95.96 18.81L95.96 8.31L97.28 8.31L97.28 9.04L97.28 9.04Q97.36 8.91 97.57 8.74L97.57 8.74L97.57 8.74Q97.78 8.57 98.18 8.43L98.18 8.43L98.18 8.43Q98.58 8.29 99.21 8.19L99.21 8.19L99.21 8.19Q99.84 8.09 100.78 8.09ZM100.78 9.19L100.78 9.19L100.78 9.19Q100.12 9.19 99.61 9.22L99.61 9.22L99.61 9.22Q99.09 9.26 98.70 9.36L98.70 9.36L98.70 9.36Q98.31 9.47 98.04 9.67L98.04 9.67L98.04 9.67Q97.77 9.87 97.60 10.21L97.60 10.21L97.60 10.21Q97.43 10.55 97.35 11.05L97.35 11.05L97.35 11.05Q97.28 11.55 97.28 12.24L97.28 12.24L97.28 12.24Q97.28 12.95 97.35 13.45L97.35 13.45L97.35 13.45Q97.43 13.96 97.60 14.30L97.60 14.30L97.60 14.30Q97.77 14.64 98.04 14.84L98.04 14.84L98.04 14.84Q98.31 15.04 98.70 15.15L98.70 15.15L98.70 15.15Q99.09 15.25 99.61 15.28L99.61 15.28L99.61 15.28Q100.12 15.31 100.78 15.31L100.78 15.31L100.78 15.31Q101.54 15.31 102.10 15.26L102.10 15.26L102.10 15.26Q102.66 15.22 103.04 15.09L103.04 15.09L103.04 15.09Q103.43 14.97 103.68 14.75L103.68 14.75L103.68 14.75Q103.92 14.53 104.05 14.19L104.05 14.19L104.05 14.19Q104.19 13.86 104.23 13.38L104.23 13.38L104.23 13.38Q104.28 12.91 104.28 12.26L104.28 12.26L104.28 12.26Q104.28 11.62 104.23 11.14L104.23 11.14L104.23 11.14Q104.19 10.66 104.05 10.32L104.05 10.32L104.05 10.32Q103.92 9.98 103.68 9.76L103.68 9.76L103.68 9.76Q103.43 9.54 103.04 9.41L103.04 9.41L103.04 9.41Q102.66 9.28 102.10 9.24L102.10 9.24L102.10 9.24Q101.54 9.19 100.78 9.19ZM108.43 14.88L108.43 16.19L107.12 16.19L107.12 14.88L108.43 14.88ZM109.96 12.20L109.96 12.20L109.96 12.20Q109.96 10.99 110.22 10.19L110.22 10.19L110.22 10.19Q110.48 9.40 111.06 8.93L111.06 8.93L111.06 8.93Q111.63 8.47 112.55 8.28L112.55 8.28L112.55 8.28Q113.46 8.09 114.78 8.09L114.78 8.09L114.78 8.09Q116.09 8.09 117.00 8.28L117.00 8.28L117.00 8.28Q117.92 8.47 118.49 8.93L118.49 8.93L118.49 8.93Q119.07 9.40 119.33 10.19L119.33 10.19L119.33 10.19Q119.59 10.99 119.59 12.20L119.59 12.20L119.59 12.20Q119.59 13.41 119.33 14.21L119.33 14.21L119.33 14.21Q119.07 15.00 118.49 15.48L118.49 15.48L118.49 15.48Q117.92 15.95 117.00 16.14L117.00 16.14L117.00 16.14Q116.09 16.34 114.78 16.34L114.78 16.34L114.78 16.34Q113.46 16.34 112.55 16.14L112.55 16.14L112.55 16.14Q111.63 15.95 111.06 15.48L111.06 15.48L111.06 15.48Q110.48 15.00 110.22 14.21L110.22 14.21L110.22 14.21Q109.96 13.41 109.96 12.20ZM111.28 12.20L111.28 12.20L111.28 12.20Q111.28 12.85 111.32 13.34L111.32 13.34L111.32 13.34Q111.37 13.82 111.50 14.17L111.50 14.17L111.50 14.17Q111.64 14.52 111.88 14.74L111.88 14.74L111.88 14.74Q112.12 14.96 112.51 15.09L112.51 15.09L112.51 15.09Q112.90 15.22 113.45 15.26L113.45 15.26L113.45 15.26Q114.01 15.31 114.78 15.31L114.78 15.31L114.78 15.31Q115.43 15.31 115.95 15.28L115.95 15.28L115.95 15.28Q116.46 15.25 116.85 15.14L116.85 15.14L116.85 15.14Q117.24 15.03 117.51 14.83L117.51 14.83L117.51 14.83Q117.78 14.63 117.95 14.28L117.95 14.28L117.95 14.28Q118.12 13.93 118.20 13.42L118.20 13.42L118.20 13.42Q118.28 12.91 118.28 12.20L118.28 12.20L118.28 12.20Q118.28 11.49 118.20 11.00L118.20 11.00L118.20 11.00Q118.12 10.50 117.95 10.17L117.95 10.17L117.95 10.17Q117.78 9.83 117.51 9.64L117.51 9.64L117.51 9.64Q117.24 9.44 116.85 9.34L116.85 9.34L116.85 9.34Q116.46 9.24 115.95 9.21L115.95 9.21L115.95 9.21Q115.43 9.19 114.78 9.19L114.78 9.19L114.78 9.19Q114.12 9.19 113.60 9.21L113.60 9.21L113.60 9.21Q113.09 9.24 112.70 9.34L112.70 9.34L112.70 9.34Q112.31 9.44 112.04 9.64L112.04 9.64L112.04 9.64Q111.77 9.83 111.60 10.17L111.60 10.17L111.60 10.17Q111.43 10.50 111.35 11.00L111.35 11.00L111.35 11.00Q111.28 11.49 111.28 12.20ZM128.99 10.88L127.90 10.88L127.90 10.88Q127.90 10.38 127.83 10.06L127.83 10.06L127.83 10.06Q127.76 9.73 127.49 9.54L127.49 9.54L127.49 9.54Q127.22 9.34 126.70 9.27L126.70 9.27L126.70 9.27Q126.18 9.19 125.28 9.19L125.28 9.19L125.28 9.19Q124.39 9.19 123.84 9.34L123.84 9.34L123.84 9.34Q123.29 9.50 122.97 9.78L122.97 9.78L122.97 9.78Q122.66 10.06 122.54 10.45L122.54 10.45L122.54 10.45Q122.43 10.83 122.43 11.31L122.43 11.31L122.43 16.19L121.12 16.19L121.12 8.31L122.43 8.31L122.43 9.56L122.43 9.56Q122.50 9.35 122.68 9.10L122.68 9.10L122.68 9.10Q122.87 8.84 123.25 8.62L123.25 8.62L123.25 8.62Q123.62 8.39 124.22 8.24L124.22 8.24L124.22 8.24Q124.82 8.09 125.71 8.09L125.71 8.09L125.71 8.09Q126.74 8.09 127.38 8.27L127.38 8.27L127.38 8.27Q128.02 8.46 128.38 8.81L128.38 8.81L128.38 8.81Q128.74 9.16 128.87 9.68L128.87 9.68L128.87 9.68Q128.99 10.20 128.99 10.88L128.99 10.88ZM134.46 9.19L134.46 9.19L134.46 9.19Q133.70 9.19 133.14 9.24L133.14 9.24L133.14 9.24Q132.58 9.28 132.19 9.41L132.19 9.41L132.19 9.41Q131.80 9.53 131.56 9.75L131.56 9.75L131.56 9.75Q131.32 9.97 131.19 10.31L131.19 10.31L131.19 10.31Q131.05 10.65 131.01 11.13L131.01 11.13L131.01 11.13Q130.96 11.61 130.96 12.26L130.96 12.26L130.96 12.26Q130.96 12.91 131.01 13.38L131.01 13.38L131.01 13.38Q131.05 13.86 131.19 14.19L131.19 14.19L131.19 14.19Q131.32 14.53 131.56 14.75L131.56 14.75L131.56 14.75Q131.80 14.97 132.19 15.09L132.19 15.09L132.19 15.09Q132.58 15.22 133.14 15.26L133.14 15.26L133.14 15.26Q133.70 15.31 134.46 15.31L134.46 15.31L134.46 15.31Q135.12 15.31 135.63 15.28L135.63 15.28L135.63 15.28Q136.14 15.25 136.53 15.15L136.53 15.15L136.53 15.15Q136.92 15.04 137.19 14.84L137.19 14.84L137.19 14.84Q137.46 14.64 137.63 14.30L137.63 14.30L137.63 14.30Q137.81 13.96 137.88 13.46L137.88 13.46L137.88 13.46Q137.96 12.95 137.96 12.24L137.96 12.24L137.96 12.24Q137.96 11.53 137.88 11.03L137.88 11.03L137.88 11.03Q137.81 10.52 137.63 10.18L137.63 10.18L137.63 10.18Q137.46 9.84 137.19 9.65L137.19 9.65L137.19 9.65Q136.92 9.45 136.53 9.34L136.53 9.34L136.53 9.34Q136.14 9.24 135.63 9.21L135.63 9.21L135.63 9.21Q135.12 9.19 134.46 9.19ZM139.28 8.31L139.28 15.09L139.28 15.09Q139.28 16.24 139.02 17.00L139.02 17.00L139.02 17.00Q138.76 17.76 138.18 18.23L138.18 18.23L138.18 18.23Q137.61 18.70 136.69 18.88L136.69 18.88L136.69 18.88Q135.78 19.07 134.46 19.07L134.46 19.07L134.46 19.07Q133.23 19.07 132.40 18.96L132.40 18.96L132.40 18.96Q131.56 18.85 131.04 18.61L131.04 18.61L131.04 18.61Q130.53 18.38 130.31 18.00L130.31 18.00L130.31 18.00Q130.09 17.63 130.09 17.10L130.09 17.10L131.40 17.10L131.40 17.10Q131.40 17.36 131.54 17.53L131.54 17.53L131.54 17.53Q131.68 17.71 132.03 17.80L132.03 17.80L132.03 17.80Q132.38 17.90 132.97 17.93L132.97 17.93L132.97 17.93Q133.56 17.97 134.46 17.97L134.46 17.97L134.46 17.97Q135.45 17.97 136.12 17.90L136.12 17.90L136.12 17.90Q136.79 17.83 137.20 17.56L137.20 17.56L137.20 17.56Q137.61 17.29 137.79 16.75L137.79 16.75L137.79 16.75Q137.96 16.21 137.96 15.31L137.96 15.31L137.96 15.31Q137.87 15.48 137.66 15.67L137.66 15.67L137.66 15.67Q137.45 15.86 137.05 16.02L137.05 16.02L137.05 16.02Q136.65 16.19 136.02 16.30L136.02 16.30L136.02 16.30Q135.39 16.41 134.46 16.41L134.46 16.41L134.46 16.41Q133.15 16.41 132.23 16.21L132.23 16.21L132.23 16.21Q131.32 16.02 130.74 15.54L130.74 15.54L130.74 15.54Q130.17 15.07 129.91 14.27L129.91 14.27L129.91 14.27Q129.65 13.47 129.65 12.26L129.65 12.26L129.65 12.26Q129.65 11.03 129.91 10.23L129.91 10.23L129.91 10.23Q130.17 9.42 130.74 8.95L130.74 8.95L130.74 8.95Q131.32 8.48 132.23 8.29L132.23 8.29L132.23 8.29Q133.15 8.09 134.46 8.09L134.46 8.09L134.46 8.09Q135.39 8.09 136.02 8.19L136.02 8.19L136.02 8.19Q136.65 8.29 137.05 8.43L137.05 8.43L137.05 8.43Q137.45 8.57 137.66 8.74L137.66 8.74L137.66 8.74Q137.87 8.91 137.96 9.04L137.96 9.04L137.96 8.31L139.28 8.31Z"></path></g><!----><!----></svg>